<svg xmlns="http://www.w3.org/2000/svg" width="32.613" height="27.132" viewBox="0 0 32.613 27.132"><defs><style>.a{fill:#ff2c2c;}</style></defs><g transform="translate(0 0)"><path class="a" d="M32.092,53.645,20.314,41.867a1.79,1.79,0,0,0-2.524,0l-1.069,1.07A1.772,1.772,0,0,0,16.2,44.2a1.807,1.807,0,0,0,.521,1.277l6.871,6.886H1.762A1.742,1.742,0,0,0,0,54.116v1.512a1.809,1.809,0,0,0,1.762,1.833H23.669l-6.949,6.925a1.768,1.768,0,0,0,0,2.506l1.069,1.066a1.79,1.79,0,0,0,2.524,0L32.092,56.178a1.8,1.8,0,0,0,0-2.533Z" transform="translate(0 -41.346)"/></g></svg>